<svg id="Layer_1" data-name="Layer 1" xmlns="http://www.w3.org/2000/svg" xmlns:xlink="http://www.w3.org/1999/xlink" viewBox="0 0 185.67 114.42"><defs><style>.cls-1{fill:none;}.cls-2,.cls-5{opacity:0.15;}.cls-3,.cls-5{fill:#fff;}.cls-4{clip-path:url(#clip-path);}.cls-5{font-size:15px;font-family:Helvetica-Bold, Helvetica;font-weight:700;}.cls-6{letter-spacing:-0.07em;}</style><clipPath id="clip-path" transform="translate(-17.41 -5.13)"><polygon id="SVGID" class="cls-1" points="136 12.62 136 25.61 124.97 25.61 124.97 36.87 147.5 36.87 147.5 12.62 136 12.62"/></clipPath></defs><g class="cls-2"><path class="cls-3" d="M30.74,11h0c-.23.83-5.15-.35-8.54-2.11a31.22,31.22,0,0,0,6.61,1.31A5.74,5.74,0,0,0,25,7a8.35,8.35,0,0,0-6.27.37,8.36,8.36,0,0,0,4.43,4.44,5.83,5.83,0,0,0,5.88-.29l1.93.51a.28.28,0,0,1,.12.44c-1,1.27-5.26,6.34-9.74,9.08A43.91,43.91,0,0,0,28,14.18c-2.83-.17-4.6.76-6.81,2.78-3.76,3.21-3.82,8.37-3.82,8.37s5.12.6,8.79-2.7c2.69-2.28,3.83-4.13,3.66-8,0,0,1.44-1.9,2.8-1.93h0C31.39,12.29,31.39,12.29,30.74,11Z" transform="translate(-17.41 -5.13)"/><polygon class="cls-3" points="125.16 45.06 125.16 45.06 125.16 45.06 125.16 45.06"/><path class="cls-3" d="M64.22,44c-.15,0-.41.07-.41.56v5.62c0,.48.26.56.41.56s.41-.1.41-.56V44.54C64.63,44.08,64.41,44,64.22,44Z" transform="translate(-17.41 -5.13)"/><path class="cls-3" d="M72.74,43.94c-.42,0-.42.37-.42.65v4.58l-3.69-4.92a.53.53,0,0,0-.47-.27c-.45,0-.45.32-.45.66v5.5c0,.16,0,.58.41.58s.42-.42.42-.57V45.47l3.79,5a.48.48,0,0,0,.43.23c.39,0,.39-.41.39-.61V44.59C73.15,44.33,73.15,43.94,72.74,43.94Z" transform="translate(-17.41 -5.13)"/><path class="cls-3" d="M81.31,44H76.13c-.49,0-.52.34-.52.41s.14.41.52.41h2.18v5.31c0,.46.22.56.41.56s.41-.08.41-.56V44.85h2.18c.38,0,.52-.22.52-.41S81.8,44,81.31,44Z" transform="translate(-17.41 -5.13)"/><path class="cls-3" d="M88.83,49.85H85V47.62h1.85c.38,0,.52-.23.52-.42s0-.41-.52-.41H85V44.85h3.59c.38,0,.52-.22.52-.41s0-.41-.52-.41h-4a.36.36,0,0,0-.38.38v5.88a.36.36,0,0,0,.38.38h4.24c.38,0,.52-.22.52-.41S89.31,49.85,88.83,49.85Z" transform="translate(-17.41 -5.13)"/><path class="cls-3" d="M97.65,46c0-1.24-.85-2-2.27-2h-3a.36.36,0,0,0-.38.38v5.7c0,.2,0,.61.42.61s.41-.42.41-.63V48h2.39l1.22,2.42a.45.45,0,0,0,.42.32.39.39,0,0,0,.38-.4.44.44,0,0,0-.07-.24L96.15,47.9A1.75,1.75,0,0,0,97.65,46Zm-4.78,1.15v-2.3h2.51c.66,0,1.45.2,1.45,1.15s-.37,1.15-1.81,1.15Z" transform="translate(-17.41 -5.13)"/><path class="cls-3" d="M105.55,43.94c-.42,0-.42.37-.42.65v4.58l-3.69-4.92A.53.53,0,0,0,101,44c-.45,0-.45.32-.45.66v5.5c0,.16,0,.58.41.58s.42-.42.42-.57V45.47l3.79,5a.48.48,0,0,0,.43.23c.39,0,.39-.41.39-.61V44.59C106,44.33,106,43.94,105.55,43.94Z" transform="translate(-17.41 -5.13)"/><path class="cls-3" d="M113.74,49.85H110V47.62h1.84c.38,0,.52-.23.52-.42s0-.41-.52-.41H110V44.85h3.59c.38,0,.51-.22.51-.41s0-.41-.51-.41h-4a.36.36,0,0,0-.38.38v5.88a.36.36,0,0,0,.38.38h4.24c.38,0,.52-.22.52-.41S114.22,49.85,113.74,49.85Z" transform="translate(-17.41 -5.13)"/><path class="cls-3" d="M122.13,44H117c-.49,0-.52.34-.52.41s.14.41.52.41h2.18v5.31c0,.46.22.56.4.56s.42-.08.42-.56V44.85h2.18c.38,0,.52-.22.52-.41S122.62,44,122.13,44Z" transform="translate(-17.41 -5.13)"/><path class="cls-3" d="M134.27,47h-2.42c-.46,0-.53.26-.53.42s.09.41.53.41h2v1.3a4.1,4.1,0,0,1-2.34.88,2.57,2.57,0,0,1-2.57-2.67,2.63,2.63,0,0,1,4.64-1.66c.16.19.29.35.5.35a.36.36,0,0,0,.38-.39,3.23,3.23,0,0,0-2.87-1.72,3.48,3.48,0,0,0-3.48,3.45,3.41,3.41,0,0,0,3.4,3.47,5.21,5.21,0,0,0,2.92-1.11l.14-.1.11-.07V47.41C134.68,47.12,134.54,47,134.27,47Z" transform="translate(-17.41 -5.13)"/><path class="cls-3" d="M143.23,46c0-1.24-.85-2-2.28-2H138a.36.36,0,0,0-.38.38v5.7c0,.2,0,.61.42.61s.4-.44.4-.63V48h2.4l1.22,2.42a.45.45,0,0,0,.41.32.38.38,0,0,0,.38-.4.45.45,0,0,0-.06-.23l-1.06-2.19A1.75,1.75,0,0,0,143.23,46Zm-4.79-1.15H141c.67,0,1.46.2,1.46,1.15s-.38,1.15-1.82,1.15h-2.15Zm4.13,5.34Z" transform="translate(-17.41 -5.13)"/><path class="cls-3" d="M149.28,43.89a3.43,3.43,0,0,0-3.61,3.46,3.62,3.62,0,1,0,3.61-3.46Zm0,6.09a2.63,2.63,0,1,1,2.79-2.63A2.65,2.65,0,0,1,149.28,50Z" transform="translate(-17.41 -5.13)"/><path class="cls-3" d="M160.81,44c-.13,0-.42.06-.42.56v4c0,.58,0,1.45-1.93,1.45s-1.92-.87-1.92-1.45v-4c0-.49-.26-.56-.42-.56s-.41.1-.41.56v4.27c0,1.29,1,2,2.75,2s2.76-.71,2.76-2V44.54C161.22,44.08,161,44,160.81,44Z" transform="translate(-17.41 -5.13)"/><path class="cls-3" d="M167.36,44h-2.57a.36.36,0,0,0-.38.38v5.7c0,.2,0,.61.42.61s.41-.42.41-.63V48h2.12c.92,0,2.63,0,2.63-2S168.34,44,167.36,44Zm0,3.12h-2.12v-2.3h2.12c1.17,0,1.81.18,1.81,1.15S168.53,47.15,167.36,47.15Z" transform="translate(-17.41 -5.13)"/><path class="cls-3" d="M38.44,12.69H32c-.86,0-1.23-.61-1.23-2V9.38c0-1.43.37-2,1.23-2h19.3c.86,0,1.23.61,1.23,2v1.27c0,1.43-.37,2-1.23,2H44.76v22c0,.86-.73,1.31-2.45,1.31H40.89c-1.72,0-2.45-.45-2.45-1.31Z" transform="translate(-17.41 -5.13)"/><path class="cls-3" d="M51.16,21.75A33.23,33.23,0,0,0,50.67,16c0-1,3.55-1.3,4.57-1.3,1.3,0,1.39,1.63,1.63,2.65.86-1.55,2.08-3.1,4.45-3.1a2.06,2.06,0,0,1,2.33,2.2c0,.78-.45,3.43-1.27,3.43-.57,0-1.1-.32-1.92-.32a3.94,3.94,0,0,0-3.26,2v13.1c0,.86-.74,1.31-2.45,1.31H53.6c-1.71,0-2.44-.45-2.44-1.31Z" transform="translate(-17.41 -5.13)"/><path class="cls-3" d="M73.73,14.24c6.41,0,8.82,4.86,8.82,10.53a4.1,4.1,0,0,1-2.09,2.41H70.05c.29,3.27,2,4.29,4.7,4.29s4.37-1.27,4.94-1.27c.9,0,2.12,2.29,2.12,3.1,0,2-5.06,2.94-7.35,2.94-7.39,0-10.65-4.28-10.65-10.86C63.81,17.34,67.89,14.24,73.73,14.24Zm2.94,8.9c0-2.37-.9-4.12-2.94-4.12-1.72,0-3.19,1-3.68,4.12Z" transform="translate(-17.41 -5.13)"/><path class="cls-3" d="M94.14,14.24c6.41,0,8.82,4.86,8.82,10.53a4.09,4.09,0,0,1-2.08,2.41H90.47c.28,3.27,2,4.29,4.69,4.29s4.37-1.27,4.94-1.27c.9,0,2.13,2.29,2.13,3.1,0,2-5.07,2.94-7.35,2.94-7.39,0-10.66-4.28-10.66-10.86C84.22,17.34,88.3,14.24,94.14,14.24Zm2.94,8.9c0-2.37-.9-4.12-2.94-4.12-1.71,0-3.18,1-3.67,4.12Z" transform="translate(-17.41 -5.13)"/><path class="cls-3" d="M105.51,6.44c0-.86.74-1.31,2.45-1.31h1.14c1.72,0,2.45.45,2.45,1.31V17a7.58,7.58,0,0,1,5.76-2.78c4.08,0,6.16,2.08,6.16,6.61V34.69c0,.86-.73,1.31-2.44,1.31h-1.15c-1.71,0-2.45-.45-2.45-1.31V21.75a2.29,2.29,0,0,0-2.61-2.53,4,4,0,0,0-3.27,2.37v13.1c0,.86-.73,1.31-2.45,1.31H108c-1.71,0-2.45-.45-2.45-1.31Z" transform="translate(-17.41 -5.13)"/><path class="cls-3" d="M163.69,14.45h-.95c-2,0-2.37.84-2.37,1.56V28.32c0,1.69-1.37,2.87-3.33,2.87s-3.3-1.18-3.3-2.87V16c0-.72-.41-1.56-2.37-1.56h-1c-2,0-2.37.84-2.37,1.56v12.6c0,4.78,3.37,7.63,9,7.63s9-2.85,9-7.63V16C166.06,15.29,165.65,14.45,163.69,14.45Z" transform="translate(-17.41 -5.13)"/><path class="cls-3" d="M170.47,30.32c.53,0,2.08,1.15,4,1.15,1.72,0,2.49-.62,2.49-1.84,0-3.59-8.16-1.47-8.16-8.78,0-4.08,2.9-6.61,7.51-6.61,1.35,0,6,.28,6,2.57,0,.53-.94,3-1.75,3a11.51,11.51,0,0,0-3.48-.86c-1.38,0-2.2.45-2.2,1.47,0,3,8.17,1.43,8.17,8.7,0,4.29-3.07,7.1-7.64,7.1-3.55,0-7.14-.94-7.14-2.9C168.31,32.53,169.61,30.32,170.47,30.32Z" transform="translate(-17.41 -5.13)"/><path class="cls-3" d="M194.26,14.24c6.41,0,8.82,4.86,8.82,10.53A4.07,4.07,0,0,1,201,27.18H190.58c.29,3.27,2,4.29,4.7,4.29s4.37-1.27,4.94-1.27c.9,0,2.12,2.29,2.12,3.1,0,2-5.06,2.94-7.35,2.94-7.39,0-10.65-4.28-10.65-10.86C184.34,17.34,188.42,14.24,194.26,14.24Zm2.94,8.9c0-2.37-.9-4.12-2.94-4.12-1.72,0-3.19,1-3.68,4.12Z" transform="translate(-17.41 -5.13)"/><polygon class="cls-3" points="123.38 28.87 123.38 28.87 123.24 28.56 124 28.48 124 28.48 125.88 28.26 125.88 28.26 126.03 28.24 125.95 28.17 125.95 28.17 125.13 27.44 125.13 27.44 124.34 26.74 119.5 22.48 119.58 31.19 119.72 31.06 119.72 31.06 121.65 29.29 121.77 29.56 121.77 29.56 123.38 33.07 124.97 32.34 123.38 28.87"/><g class="cls-4"><path class="cls-3" d="M135.91,17.66c-4.42,0-6.86,2.69-6.86,7.57s2.42,7.56,6.8,7.59h.21l0-1.52h-.2c-3.5,0-5.27-2.07-5.27-6.07s1.75-6.05,5.34-6.05,5.3,2,5.3,6.05a7.68,7.68,0,0,1-.88,4l-.09.14,1.13,1,.13-.2a8.88,8.88,0,0,0,1.23-4.92C142.73,20.35,140.31,17.66,135.91,17.66Z" transform="translate(-17.41 -5.13)"/><path class="cls-3" d="M135.9,21.26c-2.33,0-3.61,1.41-3.61,4s1.25,3.95,3.53,4H136l0-3.62L138.72,28l.13-.2a4.68,4.68,0,0,0,.64-2.58C139.49,22.67,138.22,21.26,135.9,21.26Z" transform="translate(-17.41 -5.13)"/><path class="cls-3" d="M135.91,14c-6.53,0-10.12,4-10.12,11.19s3.58,11.22,10.09,11.23h.21V34.93h-.21c-5.68,0-8.57-3.28-8.57-9.71s2.9-9.67,8.61-9.67,8.57,3.25,8.57,9.67A12.08,12.08,0,0,1,143,31.57l-.09.14,1.14,1,.13-.2a13.27,13.27,0,0,0,1.81-7.3C146,17.9,142.51,14,135.91,14Z" transform="translate(-17.41 -5.13)"/></g><rect class="cls-3" x="113.16" y="12.86" width="1.52" height="1.52"/><rect class="cls-3" x="117.09" y="12.53" width="1.52" height="1.52"/><rect class="cls-3" x="115.56" y="8.89" width="1.52" height="1.52"/><rect class="cls-3" x="108.38" y="12.86" width="1.52" height="1.52"/><rect class="cls-3" x="109.9" y="11.33" width="1.52" height="1.52"/><rect class="cls-3" x="117.09" y="17.43" width="1.52" height="1.52"/><rect class="cls-3" x="115.56" y="15.91" width="1.52" height="1.52"/><rect class="cls-3" x="113.16" y="17.43" width="1.52" height="1.52"/><rect class="cls-3" x="111.66" y="18.95" width="1.52" height="1.52"/><rect class="cls-3" x="111.64" y="15.91" width="1.52" height="1.52"/><rect class="cls-3" x="115.56" y="18.95" width="1.52" height="1.52"/><rect class="cls-3" x="108.38" y="17.43" width="1.52" height="1.52"/><rect class="cls-3" x="108.38" y="14.38" width="1.52" height="1.52"/><rect class="cls-3" x="111.43" y="9.81" width="1.52" height="1.52"/></g><text class="cls-5" transform="translate(28.94 74.76)"><tspan class="cls-6">T</tspan><tspan x="8.06" y="0">emplate Generator</tspan></text></svg>