<svg id="Layer_1" data-name="Layer 1" xmlns="http://www.w3.org/2000/svg" xmlns:xlink="http://www.w3.org/1999/xlink" viewBox="0 0 110.1 84.3"><defs><style>.cls-1{fill:none;}.cls-2,.cls-5{opacity:0.07;}.cls-3{clip-path:url(#clip-path);}.cls-4,.cls-5{fill:#fff;}.cls-5{isolation:isolate;}.cls-6{clip-path:url(#clip-path-2);}</style><clipPath id="clip-path" transform="translate(-17.4 -32.2)"><polygon class="cls-1" points="53 27.3 53 72.6 14.5 72.6 14.5 111.8 93.1 111.8 93.1 27.3 53 27.3"/></clipPath><clipPath id="clip-path-2" transform="translate(-17.4 -32.2)"><polygon class="cls-1" points="91 70.2 91 77.3 85 77.3 85 83.4 97.3 83.4 97.3 70.2 91 70.2"/></clipPath></defs><g class="cls-2"><g class="cls-3"><path class="cls-4" d="M52.7,44.8c-15.4,0-23.9,9.4-23.9,26.4s8.4,26.4,23.7,26.5h.7V92.4h-.7c-12.2-.1-18.4-7.2-18.4-21.2,0-14.2,6.1-21.1,18.6-21.1S71.2,57,71.2,71.2c0,5.8-1,10.5-3.1,13.9l-.3.5,3.9,3.5.5-.7C75,84,76.5,78.3,76.5,71.2,76.5,54.2,68,44.8,52.7,44.8Z" transform="translate(-17.4 -32.2)"/><path class="cls-4" d="M52.6,57.3C44.5,57.3,40,62.2,40,71.2,40,80,44.4,85,52.3,85.1H53V72.5l9.5,8.4.5-.7c1.5-2.3,2.2-5.3,2.2-9C65.1,62.2,60.7,57.3,52.6,57.3Z" transform="translate(-17.4 -32.2)"/><path class="cls-4" d="M52.7,32.2c-22.8,0-35.3,13.9-35.3,39s12.5,39.1,35.2,39.2h.7v-5.3h-.7C32.7,105,22.7,93.6,22.7,71.2s10.1-33.7,30-33.7S82.6,48.8,82.6,71.2c0,9.2-1.7,16.6-5.1,22.1l-.3.5,4,3.5.5-.7c4.2-6.4,6.3-15,6.3-25.5C87.9,45.7,75.7,32.2,52.7,32.2Z" transform="translate(-17.4 -32.2)"/></g></g><rect class="cls-5" x="16.5" y="13.7" width="5.3" height="5.3"/><rect class="cls-5" x="27.7" y="12.6" width="5.2" height="5.3"/><rect class="cls-5" x="25" width="5.3" height="5.3"/><rect class="cls-5" x="5.3" y="8.5" width="5.3" height="5.3"/><rect class="cls-5" x="24.9" y="24.3" width="5.3" height="5.3"/><rect class="cls-5" x="16.7" y="29.7" width="5.3" height="5.3"/><rect class="cls-5" x="11.4" y="35.1" width="5.3" height="5.3"/><rect class="cls-5" x="11.4" y="24.4" width="5.3" height="5.3"/><rect class="cls-5" x="25" y="35.1" width="5.3" height="5.3"/><rect class="cls-5" y="29.7" width="5.3" height="5.3"/><polygon class="cls-5" points="0 13.8 0 19.1 0 19.1 0 24.4 5.3 24.4 5.3 19.1 5.3 19.1 5.3 13.8 0 13.8"/><rect class="cls-5" x="10.6" y="3.2" width="5.3" height="5.3"/><path class="cls-4" d="M33.8,69.3h0c-.1.4-2.8-.2-4.6-1.1a16.06,16.06,0,0,0,3.6.7,3.08,3.08,0,0,0-2.1-1.7,4.39,4.39,0,0,0-3.4.2,4.49,4.49,0,0,0,2.4,2.4,3.08,3.08,0,0,0,3.2-.2l1,.3c.1,0,.1.2.1.2A26.47,26.47,0,0,1,28.7,75a23.72,23.72,0,0,0,3.6-4,4.56,4.56,0,0,0-3.7,1.5,7,7,0,0,0-2.1,4.6,6.79,6.79,0,0,0,4.8-1.5,4.51,4.51,0,0,0,2-4.4s.8-1,1.5-1h0C34.2,70,34.2,70,33.8,69.3Z" transform="translate(-17.4 -32.2)"/><path class="cls-4" d="M94.6,90.6Z" transform="translate(-17.4 -32.2)"/><path class="cls-4" d="M52,87.2c-.1,0-.2,0-.2.3v3.1c0,.3.1.3.2.3s.2-.1.2-.3V87.5C52.2,87.3,52.1,87.2,52,87.2Z" transform="translate(-17.4 -32.2)"/><path class="cls-4" d="M56.7,87.2c-.2,0-.2.2-.2.4v2.5l-2-2.7c-.1-.1-.1-.1-.3-.1s-.2.2-.2.4v3c0,.1,0,.3.2.3s.2-.2.2-.3V88.2l2.1,2.7c.1.1.1.1.2.1s.2-.2.2-.3v-3C56.9,87.4,56.9,87.2,56.7,87.2Z" transform="translate(-17.4 -32.2)"/><path class="cls-4" d="M61.3,87.3H58.5c-.3,0-.3.2-.3.2s.1.2.3.2h1.2v2.9c0,.3.1.3.2.3s.2,0,.2-.3V87.7h1.2c.2,0,.3-.1.3-.2S61.6,87.3,61.3,87.3Z" transform="translate(-17.4 -32.2)"/><path class="cls-4" d="M65.4,90.4H63.3V89.2h1c.2,0,.3-.1.3-.2s0-.2-.3-.2h-1V87.7h2c.2,0,.3-.1.3-.2s0-.2-.3-.2H63.1a.22.22,0,0,0-.2.2v3.2a.22.22,0,0,0,.2.2h2.3c.2,0,.3-.1.3-.2S65.7,90.4,65.4,90.4Z" transform="translate(-17.4 -32.2)"/><path class="cls-4" d="M70.2,88.3A1.08,1.08,0,0,0,69,87.2H67.4a.22.22,0,0,0-.2.2v3.1c0,.1,0,.3.2.3s.2-.2.2-.3V89.4h1.3l.7,1.3a.2.2,0,0,0,.4,0v-.1l-.6-1.2A1,1,0,0,0,70.2,88.3Zm-2.6.7V87.7H69c.4,0,.8.1.8.6s-.2.6-1,.6H67.6Z" transform="translate(-17.4 -32.2)"/><path class="cls-4" d="M74.5,87.2c-.2,0-.2.2-.2.4v2.5l-2-2.7c-.1-.1-.1-.1-.3-.1s-.2.2-.2.4v3c0,.1,0,.3.2.3s.2-.2.2-.3V88.2l2.1,2.7c.1.1.1.1.2.1s.2-.2.2-.3v-3C74.7,87.4,74.7,87.2,74.5,87.2Z" transform="translate(-17.4 -32.2)"/><path class="cls-4" d="M78.9,90.4H76.8V89.2h1c.2,0,.3-.1.3-.2s0-.2-.3-.2h-1V87.7h2c.2,0,.3-.1.3-.2s0-.2-.3-.2H76.6a.22.22,0,0,0-.2.2v3.2a.22.22,0,0,0,.2.2h2.3c.2,0,.3-.1.3-.2S79.2,90.4,78.9,90.4Z" transform="translate(-17.4 -32.2)"/><path class="cls-4" d="M83.5,87.3H80.7c-.3,0-.3.2-.3.2s.1.2.3.2h1.2v2.9c0,.3.1.3.2.3s.2,0,.2-.3V87.7h1.2c.2,0,.3-.1.3-.2S83.8,87.3,83.5,87.3Z" transform="translate(-17.4 -32.2)"/><path class="cls-4" d="M90.1,88.9H88.8c-.2,0-.3.1-.3.2s0,.2.3.2h1.1V90a2.69,2.69,0,0,1-1.3.5A1.39,1.39,0,0,1,87.2,89a1.37,1.37,0,0,1,1.4-1.4,1.59,1.59,0,0,1,1.1.5c.1.1.2.2.3.2a.22.22,0,0,0,.2-.2,1.82,1.82,0,0,0-1.6-.9,1.9,1.9,0,0,0-1.9,1.9A1.82,1.82,0,0,0,88.5,91a3,3,0,0,0,1.6-.6.1.1,0,0,0,.1-.1h.1V89.1C90.3,88.9,90.2,88.9,90.1,88.9Z" transform="translate(-17.4 -32.2)"/><path class="cls-4" d="M95,88.3a1.08,1.08,0,0,0-1.2-1.1H92.2a.22.22,0,0,0-.2.2v3.1c0,.1,0,.3.2.3s.2-.2.2-.3V89.4h1.3l.7,1.3a.2.2,0,0,0,.4,0v-.1l-.6-1.2A1,1,0,0,0,95,88.3Zm-2.6-.6h1.4c.4,0,.8.1.8.6s-.2.6-1,.6H92.4Zm2.2,2.9Z" transform="translate(-17.4 -32.2)"/><path class="cls-4" d="M98.3,87.2a1.9,1.9,0,1,0,2,1.9A2,2,0,0,0,98.3,87.2Zm0,3.3a1.39,1.39,0,0,1-1.5-1.4,1.45,1.45,0,0,1,1.5-1.4,1.39,1.39,0,0,1,1.5,1.4A1.45,1.45,0,0,1,98.3,90.5Z" transform="translate(-17.4 -32.2)"/><path class="cls-4" d="M104.5,87.2c-.1,0-.2,0-.2.3v2.2c0,.3,0,.8-1,.8s-1-.5-1-.8V87.5c0-.3-.1-.3-.2-.3s-.2.1-.2.3v2.3c0,.7.5,1.1,1.5,1.1s1.5-.4,1.5-1.1V87.5C104.7,87.3,104.6,87.2,104.5,87.2Z" transform="translate(-17.4 -32.2)"/><path class="cls-4" d="M108.1,87.3h-1.4a.22.22,0,0,0-.2.2v3.1c0,.1,0,.3.2.3s.2-.2.2-.3V89.5h1.2c.5,0,1.4,0,1.4-1.1S108.6,87.3,108.1,87.3Zm0,1.7h-1.2V87.7h1.2c.6,0,1,.1,1,.6S108.7,89,108.1,89Z" transform="translate(-17.4 -32.2)"/><path class="cls-4" d="M38,70.2H34.5c-.5,0-.7-.3-.7-1.1v-.7c0-.8.2-1.1.7-1.1H45c.5,0,.7.3.7,1.1v.7c0,.8-.2,1.1-.7,1.1H41.5v12c0,.5-.4.7-1.3.7h-.8c-.9,0-1.3-.2-1.3-.7v-12Z" transform="translate(-17.4 -32.2)"/><path class="cls-4" d="M44.9,75.2a15.22,15.22,0,0,0-.3-3.1c0-.5,1.9-.7,2.5-.7s.8.9.9,1.4a2.79,2.79,0,0,1,2.4-1.7,1.16,1.16,0,0,1,1.3,1.2c0,.4-.2,1.9-.7,1.9-.3,0-.6-.2-1-.2a2.37,2.37,0,0,0-1.8,1.1v7.1c0,.5-.4.7-1.3.7h-.6c-.9,0-1.3-.2-1.3-.7v-7Z" transform="translate(-17.4 -32.2)"/><path class="cls-4" d="M57.2,71.1c3.5,0,4.8,2.6,4.8,5.7,0,.4-.8,1.3-1.1,1.3H55.2a2.23,2.23,0,0,0,2.6,2.3,8.69,8.69,0,0,0,2.7-.7c.5,0,1.2,1.2,1.2,1.7,0,1.1-2.8,1.6-4,1.6-4,0-5.8-2.3-5.8-5.9C51.8,72.8,54,71.1,57.2,71.1Zm1.6,4.8c0-1.3-.5-2.2-1.6-2.2-.9,0-1.7.5-2,2.2Z" transform="translate(-17.4 -32.2)"/><path class="cls-4" d="M68.3,71.1c3.5,0,4.8,2.6,4.8,5.7,0,.4-.8,1.3-1.1,1.3H66.3a2.23,2.23,0,0,0,2.6,2.3,8.69,8.69,0,0,0,2.7-.7c.5,0,1.2,1.2,1.2,1.7,0,1.1-2.8,1.6-4,1.6-4,0-5.8-2.3-5.8-5.9C62.9,72.8,65.1,71.1,68.3,71.1Zm1.6,4.8c0-1.3-.5-2.2-1.6-2.2-.9,0-1.7.5-2,2.2Z" transform="translate(-17.4 -32.2)"/><polygon class="cls-5" points="52.3 69.6 52.3 69.6 51.8 68.6 54.5 68.3 54.5 68.3 61 67.5 61 67.5 61.5 67.4 61.2 67.2 61.2 67.2 58.4 64.7 58.4 64.7 55.6 62.2 38.8 47.3 39 77.7 39.5 77.3 39.5 77.3 46.3 71.1 46.7 72 46.7 72 52.3 84.3 57.8 81.7 52.3 69.6"/><path class="cls-4" d="M74.5,66.8c0-.5.4-.7,1.3-.7h.6c.9,0,1.3.2,1.3.7v5.7A4.21,4.21,0,0,1,80.8,71c2.2,0,3.4,1.1,3.4,3.6v7.5c0,.5-.4.7-1.3.7h-.6c-.9,0-1.3-.2-1.3-.7v-7a1.22,1.22,0,0,0-1.4-1.4A2.31,2.31,0,0,0,77.8,75v7.1c0,.5-.4.7-1.3.7h-.6c-.9,0-1.3-.2-1.3-.7V66.8Z" transform="translate(-17.4 -32.2)"/><path class="cls-4" d="M106.1,71.2h-.5c-1.1,0-1.3.5-1.3.8v6.7a1.64,1.64,0,0,1-1.8,1.6,1.58,1.58,0,0,1-1.8-1.6V72c0-.4-.2-.8-1.3-.8h-.5c-1.1,0-1.3.5-1.3.8v6.9c0,2.6,1.8,4.1,4.9,4.1s4.9-1.6,4.9-4.1V72C107.4,71.7,107.1,71.2,106.1,71.2Z" transform="translate(-17.4 -32.2)"/><path class="cls-4" d="M109.8,79.8a7.75,7.75,0,0,0,2.2.6c.9,0,1.4-.3,1.4-1,0-2-4.4-.8-4.4-4.8,0-2.2,1.6-3.6,4.1-3.6.7,0,3.3.2,3.3,1.4,0,.3-.5,1.6-1,1.6a5.81,5.81,0,0,0-1.9-.5c-.8,0-1.2.2-1.2.8,0,1.6,4.4.8,4.4,4.7a3.84,3.84,0,0,1-4.1,3.9c-1.9,0-3.9-.5-3.9-1.6C108.6,81,109.3,79.8,109.8,79.8Z" transform="translate(-17.4 -32.2)"/><path class="cls-4" d="M122.7,71.1c3.5,0,4.8,2.6,4.8,5.7,0,.4-.8,1.3-1.1,1.3h-5.7a2.23,2.23,0,0,0,2.6,2.3,8.69,8.69,0,0,0,2.7-.7c.5,0,1.2,1.2,1.2,1.7,0,1.1-2.8,1.6-4,1.6-4,0-5.8-2.3-5.8-5.9C117.3,72.8,119.5,71.1,122.7,71.1Zm1.6,4.8c0-1.3-.5-2.2-1.6-2.2-.9,0-1.7.5-2,2.2Z" transform="translate(-17.4 -32.2)"/><polygon class="cls-4" points="76.2 49.6 76.2 49.6 76.2 49.5 76.6 49.4 76.6 49.4 77.6 49.3 77.6 49.3 77.7 49.3 77.6 49.2 77.6 49.2 77.2 48.8 77.2 48.8 76.8 48.5 74.1 46.1 74.2 50.9 74.2 50.8 74.2 50.8 75.3 49.8 75.4 50 75.4 50 76.2 51.9 77.1 51.5 76.2 49.6"/><g class="cls-6"><path class="cls-4" d="M91,72.9c-2.4,0-3.7,1.5-3.7,4.1s1.3,4.1,3.7,4.1h.1v-.8H91c-1.9,0-2.9-1.1-2.9-3.3s.9-3.3,2.9-3.3,2.9,1.1,2.9,3.3a4.77,4.77,0,0,1-.5,2.2v.1l.6.5.1-.1a5.38,5.38,0,0,0,.7-2.7C94.7,74.4,93.4,72.9,91,72.9Z" transform="translate(-17.4 -32.2)"/><path class="cls-4" d="M91,74.9c-1.3,0-2,.8-2,2.2a1.93,1.93,0,0,0,1.9,2.2H91v-2l1.5,1.3.1-.1a2.89,2.89,0,0,0,.4-1.4C92.9,75.7,92.2,74.9,91,74.9Z" transform="translate(-17.4 -32.2)"/><path class="cls-4" d="M91,71c-3.5,0-5.5,2.2-5.5,6.1s1.9,6.1,5.5,6.1h.1v-.8H91c-3.1,0-4.7-1.8-4.7-5.3s1.6-5.3,4.7-5.3,4.7,1.8,4.7,5.3a6.57,6.57,0,0,1-.8,3.4v.1l.6.5.1-.1a6.78,6.78,0,0,0,1-4C96.5,73.1,94.6,71,91,71Z" transform="translate(-17.4 -32.2)"/></g><rect class="cls-4" x="70.7" y="40.9" width="0.8" height="0.8"/><rect class="cls-4" x="72.8" y="40.7" width="0.8" height="0.8"/><rect class="cls-4" x="72" y="38.8" width="0.8" height="0.8"/><rect class="cls-4" x="68.1" y="40.9" width="0.8" height="0.8"/><rect class="cls-4" x="68.9" y="40.1" width="0.8" height="0.8"/><rect class="cls-4" x="72.8" y="43.4" width="0.8" height="0.8"/><rect class="cls-4" x="72" y="42.6" width="0.8" height="0.8"/><rect class="cls-4" x="70.7" y="43.4" width="0.8" height="0.8"/><rect class="cls-4" x="69.9" y="44.2" width="0.8" height="0.8"/><rect class="cls-4" x="69.9" y="42.6" width="0.8" height="0.8"/><rect class="cls-4" x="72" y="44.2" width="0.8" height="0.8"/><rect class="cls-4" x="68.1" y="43.4" width="0.8" height="0.8"/><rect class="cls-4" x="68.1" y="41.7" width="0.8" height="0.8"/><rect class="cls-4" x="69.7" y="39.3" width="0.8" height="0.8"/></svg>