<svg id="Layer_1" data-name="Layer 1" xmlns="http://www.w3.org/2000/svg" xmlns:xlink="http://www.w3.org/1999/xlink" viewBox="0 0 185.67 73.13"><defs><style>.cls-1{fill:none;}.cls-2,.cls-4{fill:#fff;}.cls-2,.cls-3{opacity:0.2;}.cls-5{clip-path:url(#clip-path);}.cls-6{opacity:0.45;}</style><clipPath id="clip-path" transform="translate(-10.82 22.86)"><polygon id="SVGID" class="cls-1" points="129.41 12.08 129.41 25.07 118.38 25.07 118.38 36.33 140.91 36.33 140.91 12.08 129.41 12.08"/></clipPath></defs><path class="cls-2" d="M24.15,10.42h0c-.23.82-5.15-.36-8.54-2.12a31.35,31.35,0,0,0,6.61,1.32,5.72,5.72,0,0,0-3.8-3.14,8.33,8.33,0,0,0-6.26.37,8.36,8.36,0,0,0,4.43,4.44A5.83,5.83,0,0,0,22.47,11l1.93.51a.28.28,0,0,1,.12.44c-1,1.27-5.26,6.34-9.74,9.08a43.91,43.91,0,0,0,6.67-7.4c-2.83-.17-4.6.77-6.82,2.78-3.75,3.21-3.81,8.37-3.81,8.37s5.12.6,8.79-2.7c2.69-2.28,3.82-4.13,3.65-8,0,0,1.45-1.9,2.81-1.93h0C24.8,11.75,24.8,11.75,24.15,10.42Z" transform="translate(-10.82 22.86)"/><g class="cls-3"><polygon class="cls-4" points="125.16 72.52 125.16 72.52 125.16 72.52 125.16 72.52"/><path class="cls-4" d="M57.63,43.44c-.15,0-.41.08-.41.56v5.62c0,.49.26.56.41.56s.41-.1.41-.56V44C58,43.54,57.82,43.44,57.63,43.44Z" transform="translate(-10.82 22.86)"/><path class="cls-4" d="M66.15,43.4c-.42,0-.42.37-.42.65v4.58L62,43.71a.5.5,0,0,0-.46-.27c-.45,0-.45.32-.45.66v5.5c0,.16,0,.58.41.58s.42-.42.42-.57V44.93l3.79,5a.47.47,0,0,0,.42.23c.39,0,.39-.41.39-.61V44.05C66.55,43.79,66.55,43.4,66.15,43.4Z" transform="translate(-10.82 22.86)"/><path class="cls-4" d="M74.72,43.49H69.54c-.49,0-.52.34-.52.41s.14.41.52.41h2.18v5.31c0,.46.22.56.41.56s.41-.07.41-.56V44.31h2.18c.38,0,.52-.22.52-.41S75.21,43.49,74.72,43.49Z" transform="translate(-10.82 22.86)"/><path class="cls-4" d="M82.24,49.31h-3.8V47.08h1.85c.38,0,.52-.22.52-.42s0-.4-.52-.4H78.44V44.31H82c.38,0,.52-.22.52-.41s0-.41-.52-.41H78a.36.36,0,0,0-.38.38v5.88a.36.36,0,0,0,.38.38h4.24c.38,0,.52-.22.52-.41S82.72,49.31,82.24,49.31Z" transform="translate(-10.82 22.86)"/><path class="cls-4" d="M91.06,45.46c0-1.24-.85-2-2.27-2h-3a.36.36,0,0,0-.38.38v5.7c0,.2,0,.61.42.61s.41-.42.41-.63V47.44h2.39l1.22,2.42a.45.45,0,0,0,.42.32.39.39,0,0,0,.38-.4.44.44,0,0,0-.07-.24l-1.06-2.18A1.75,1.75,0,0,0,91.06,45.46Zm-4.78,1.15v-2.3h2.51c.66,0,1.45.2,1.45,1.15s-.37,1.15-1.81,1.15Z" transform="translate(-10.82 22.86)"/><path class="cls-4" d="M99,43.4c-.42,0-.42.37-.42.65v4.58l-3.7-4.92a.5.5,0,0,0-.46-.27c-.45,0-.45.32-.45.66v5.5c0,.16,0,.58.41.58s.42-.42.42-.57V44.93l3.79,5a.47.47,0,0,0,.43.23c.39,0,.39-.41.39-.61V44.05C99.37,43.79,99.37,43.4,99,43.4Z" transform="translate(-10.82 22.86)"/><path class="cls-4" d="M107.15,49.31h-3.79V47.08h1.84c.38,0,.52-.22.52-.42s0-.4-.52-.4h-1.84V44.31H107c.38,0,.51-.22.51-.41s0-.41-.51-.41h-4a.36.36,0,0,0-.38.38v5.88a.36.36,0,0,0,.38.38h4.24c.38,0,.52-.22.52-.41S107.63,49.31,107.15,49.31Z" transform="translate(-10.82 22.86)"/><path class="cls-4" d="M115.54,43.49h-5.19c-.49,0-.51.34-.51.41s.13.41.51.41h2.18v5.31c0,.46.23.56.41.56s.42-.07.42-.56V44.31h2.18c.38,0,.51-.22.51-.41S116,43.49,115.54,43.49Z" transform="translate(-10.82 22.86)"/><path class="cls-4" d="M127.68,46.43h-2.43c-.45,0-.52.27-.52.42s.09.41.52.41h2v1.3a4.1,4.1,0,0,1-2.34.88,2.56,2.56,0,0,1-2.57-2.67A2.63,2.63,0,0,1,127,45.11c.16.19.29.35.5.35a.36.36,0,0,0,.38-.39A3.24,3.24,0,0,0,125,43.35a3.47,3.47,0,0,0-3.47,3.45,3.41,3.41,0,0,0,3.4,3.47,5.21,5.21,0,0,0,2.92-1.11l.14-.1.11-.07V46.87C128.09,46.58,128,46.43,127.68,46.43Z" transform="translate(-10.82 22.86)"/><path class="cls-4" d="M136.64,45.46c0-1.24-.85-2-2.28-2h-3a.36.36,0,0,0-.38.38v5.7c0,.2,0,.61.41.61s.41-.44.41-.63V47.44h2.4l1.22,2.43a.44.44,0,0,0,.41.31.38.38,0,0,0,.38-.4.45.45,0,0,0-.06-.23l-1.06-2.19A1.75,1.75,0,0,0,136.64,45.46Zm-4.79-1.15h2.51c.67,0,1.46.2,1.46,1.15s-.38,1.15-1.82,1.15h-2.15ZM136,49.65Z" transform="translate(-10.82 22.86)"/><path class="cls-4" d="M142.69,43.35a3.46,3.46,0,1,0,0,6.92,3.46,3.46,0,1,0,0-6.92Zm0,6.09a2.63,2.63,0,1,1,2.79-2.62A2.65,2.65,0,0,1,142.69,49.44Z" transform="translate(-10.82 22.86)"/><path class="cls-4" d="M154.22,43.44c-.13,0-.42.06-.42.56v4c0,.58,0,1.45-1.93,1.45S150,48.57,150,48V44c0-.48-.27-.56-.42-.56s-.41.1-.41.56v4.27c0,1.29,1,2,2.75,2s2.76-.71,2.76-2V44C154.63,43.54,154.4,43.44,154.22,43.44Z" transform="translate(-10.82 22.86)"/><path class="cls-4" d="M160.76,43.49H158.2a.36.36,0,0,0-.38.38v5.7c0,.2,0,.61.42.61s.41-.42.41-.63V47.44h2.11c.93,0,2.64,0,2.64-2S161.75,43.49,160.76,43.49Zm0,3.12h-2.11v-2.3h2.11c1.18,0,1.82.19,1.82,1.15S161.94,46.61,160.76,46.61Z" transform="translate(-10.82 22.86)"/></g><path class="cls-2" d="M31.85,12.15h-6.5c-.85,0-1.22-.61-1.22-2V8.84c0-1.43.37-2,1.22-2H44.66c.86,0,1.23.61,1.23,2v1.27c0,1.43-.37,2-1.23,2H38.17v22c0,.86-.73,1.31-2.45,1.31H34.3c-1.72,0-2.45-.45-2.45-1.31Z" transform="translate(-10.82 22.86)"/><path class="cls-2" d="M44.56,21.21a32.89,32.89,0,0,0-.49-5.75c0-1,3.56-1.31,4.58-1.31,1.3,0,1.39,1.63,1.63,2.65.86-1.55,2.08-3.1,4.45-3.1a2.06,2.06,0,0,1,2.33,2.2c0,.78-.45,3.43-1.27,3.43-.57,0-1.1-.32-1.92-.32a3.94,3.94,0,0,0-3.26,2v13.1c0,.86-.74,1.31-2.45,1.31H47c-1.71,0-2.45-.45-2.45-1.31Z" transform="translate(-10.82 22.86)"/><path class="cls-2" d="M67.14,13.7c6.41,0,8.81,4.86,8.81,10.53a4.09,4.09,0,0,1-2.08,2.41H63.46c.29,3.27,2,4.29,4.7,4.29s4.37-1.27,4.94-1.27c.89,0,2.12,2.29,2.12,3.1,0,2.05-5.06,2.94-7.35,2.94-7.39,0-10.65-4.28-10.65-10.86C57.22,16.8,61.3,13.7,67.14,13.7Zm2.94,8.9c0-2.37-.9-4.12-2.94-4.12-1.72,0-3.19,1-3.68,4.12Z" transform="translate(-10.82 22.86)"/><path class="cls-2" d="M87.55,13.7c6.41,0,8.82,4.86,8.82,10.53a4.09,4.09,0,0,1-2.08,2.41H83.88c.28,3.27,2,4.29,4.69,4.29s4.37-1.27,4.94-1.27c.9,0,2.12,2.29,2.12,3.1,0,2.05-5.06,2.94-7.34,2.94-7.39,0-10.66-4.28-10.66-10.86C77.63,16.8,81.71,13.7,87.55,13.7Zm2.94,8.9c0-2.37-.9-4.12-2.94-4.12-1.71,0-3.18,1-3.67,4.12Z" transform="translate(-10.82 22.86)"/><path class="cls-2" d="M98.92,5.9c0-.85.74-1.3,2.45-1.3h1.14c1.72,0,2.45.45,2.45,1.3V16.48a7.62,7.62,0,0,1,5.76-2.78c4.08,0,6.16,2.08,6.16,6.61V34.15c0,.86-.73,1.31-2.45,1.31h-1.14c-1.71,0-2.45-.45-2.45-1.31V21.21a2.29,2.29,0,0,0-2.61-2.53A4,4,0,0,0,105,21.05v13.1c0,.86-.73,1.31-2.45,1.31h-1.14c-1.71,0-2.45-.45-2.45-1.31Z" transform="translate(-10.82 22.86)"/><path class="cls-2" d="M157.1,13.91h-.95c-2,0-2.37.85-2.37,1.56V27.78c0,1.69-1.37,2.87-3.33,2.87s-3.3-1.18-3.3-2.87V15.47c0-.71-.41-1.56-2.37-1.56h-1c-2,0-2.37.85-2.37,1.56v12.6c0,4.78,3.37,7.63,9,7.63s9-2.85,9-7.63V15.47C159.47,14.76,159.06,13.91,157.1,13.91Z" transform="translate(-10.82 22.86)"/><path class="cls-2" d="M163.88,29.78c.53,0,2.08,1.15,4,1.15,1.72,0,2.49-.61,2.49-1.84,0-3.59-8.16-1.47-8.16-8.78,0-4.08,2.9-6.61,7.51-6.61,1.35,0,6,.29,6,2.57,0,.53-.94,3-1.76,3a11.42,11.42,0,0,0-3.47-.85c-1.38,0-2.2.44-2.2,1.47,0,3,8.16,1.42,8.16,8.69,0,4.29-3.06,7.1-7.63,7.1-3.55,0-7.14-.93-7.14-2.89C161.72,32,163,29.78,163.88,29.78Z" transform="translate(-10.82 22.86)"/><path class="cls-2" d="M187.67,13.7c6.41,0,8.82,4.86,8.82,10.53a4.1,4.1,0,0,1-2.09,2.41H184c.29,3.27,2,4.29,4.7,4.29s4.37-1.27,4.94-1.27c.9,0,2.12,2.29,2.12,3.1,0,2.05-5.06,2.94-7.35,2.94-7.39,0-10.65-4.28-10.65-10.86C177.75,16.8,181.83,13.7,187.67,13.7Zm2.94,8.9c0-2.37-.9-4.12-2.94-4.12-1.72,0-3.19,1-3.68,4.12Z" transform="translate(-10.82 22.86)"/><polygon class="cls-2" points="123.38 56.33 123.38 56.33 123.24 56.02 124 55.94 124 55.94 125.88 55.72 125.88 55.72 126.03 55.7 125.95 55.63 125.95 55.63 125.13 54.9 125.13 54.9 124.34 54.2 119.5 49.94 119.58 58.65 119.72 58.52 119.72 58.52 121.65 56.75 121.77 57.02 121.77 57.02 123.38 60.53 124.97 59.8 123.38 56.33"/><g class="cls-3"><g class="cls-5"><path class="cls-4" d="M129.31,17.13c-4.41,0-6.85,2.68-6.85,7.56s2.42,7.56,6.8,7.59h.21l0-1.52h-.2c-3.5,0-5.27-2.07-5.27-6.07s1.74-6.05,5.33-6.05,5.31,2,5.31,6.05a7.68,7.68,0,0,1-.88,4l-.09.14,1.13,1,.13-.2a8.88,8.88,0,0,0,1.23-4.92C136.14,19.81,133.72,17.13,129.31,17.13Z" transform="translate(-10.82 22.86)"/><path class="cls-4" d="M129.31,20.72c-2.33,0-3.61,1.41-3.61,4s1.25,3.94,3.53,4h.21l0-3.62,2.72,2.41.13-.2a4.66,4.66,0,0,0,.64-2.57C132.9,22.13,131.63,20.72,129.31,20.72Z" transform="translate(-10.82 22.86)"/><path class="cls-4" d="M129.32,13.49c-6.53,0-10.13,4-10.13,11.19s3.59,11.22,10.1,11.23h.21l0-1.52h-.2c-5.69,0-8.57-3.28-8.57-9.71s2.9-9.67,8.61-9.67,8.57,3.25,8.57,9.67A12.08,12.08,0,0,1,136.42,31l-.09.15,1.14,1,.13-.2a13.24,13.24,0,0,0,1.81-7.3C139.41,17.36,135.92,13.49,129.32,13.49Z" transform="translate(-10.82 22.86)"/></g></g><rect class="cls-2" x="113.16" y="40.32" width="1.52" height="1.52"/><rect class="cls-2" x="117.09" y="39.99" width="1.52" height="1.52"/><rect class="cls-2" x="115.56" y="36.35" width="1.52" height="1.52"/><rect class="cls-2" x="108.38" y="40.32" width="1.52" height="1.52"/><rect class="cls-2" x="109.9" y="38.79" width="1.52" height="1.52"/><rect class="cls-2" x="117.09" y="44.89" width="1.52" height="1.52"/><rect class="cls-2" x="115.56" y="43.37" width="1.52" height="1.52"/><rect class="cls-2" x="113.16" y="44.89" width="1.52" height="1.52"/><rect class="cls-2" x="111.66" y="46.41" width="1.52" height="1.52"/><rect class="cls-2" x="111.64" y="43.37" width="1.52" height="1.52"/><rect class="cls-2" x="115.56" y="46.41" width="1.52" height="1.52"/><rect class="cls-2" x="108.38" y="44.89" width="1.52" height="1.52"/><rect class="cls-2" x="108.38" y="41.84" width="1.52" height="1.52"/><rect class="cls-2" x="111.43" y="37.27" width="1.52" height="1.52"/><text class="cls-6" x="-10.82" y="22.86"/></svg>